<?xml version="1.0" encoding="UTF-8"?>
<!DOCTYPE svg PUBLIC "-//W3C//DTD SVG 1.1//EN" "http://www.w3.org/Graphics/SVG/1.1/DTD/svg11.dtd">
<svg xmlns="http://www.w3.org/2000/svg" version="1.1" width="793px" height="765px" style="shape-rendering:geometricPrecision; text-rendering:geometricPrecision; image-rendering:optimizeQuality; fill-rule:evenodd; clip-rule:evenodd" xmlns:xlink="http://www.w3.org/1999/xlink">
<g><path style="opacity:0.997" fill="#000000" d="M -0.5,-0.5 C 119.833,-0.5 240.167,-0.5 360.5,-0.5C 360.5,27.5 360.5,55.5 360.5,83.5C 306.196,80.0568 267.363,102.723 244,151.5C 227.133,200.863 237.633,243.363 275.5,279C 300.016,298.964 328.016,307.131 359.5,303.5C 360.5,322.822 360.833,342.155 360.5,361.5C 319.499,361.333 278.499,361.5 237.5,362C 261.673,384.862 268.173,412.029 257,443.5C 244.091,470.558 222.591,484.558 192.5,485.5C 162.08,484.541 140.58,470.207 128,442.5C 118.59,414.211 123.757,389.045 143.5,367C 146.009,365.579 148.343,363.912 150.5,362C 100.168,361.5 49.8344,361.333 -0.5,361.5C -0.5,240.833 -0.5,120.167 -0.5,-0.5 Z"/></g>
<g><path style="opacity:0.998" fill="#000000" d="M 402.5,-0.5 C 532.5,-0.5 662.5,-0.5 792.5,-0.5C 792.5,254.5 792.5,509.5 792.5,764.5C 792.167,764.5 791.833,764.5 791.5,764.5C 671.334,763.5 551.001,763.167 430.5,763.5C 430.5,735.5 430.5,707.5 430.5,679.5C 474.358,682.981 509.525,667.314 536,632.5C 562.573,589.065 561.907,546.065 534,503.5C 507.912,470.381 473.746,455.714 431.5,459.5C 430.5,440.178 430.167,420.845 430.5,401.5C 471.835,401.667 513.168,401.5 554.5,401C 533.689,383.245 525.523,360.745 530,333.5C 536.201,306.576 552.368,288.743 578.5,280C 607.847,272.784 632.68,280.284 653,302.5C 674.542,334.199 673.376,365.032 649.5,395C 646.268,396.23 643.601,398.23 641.5,401C 691.499,401.5 741.499,401.667 791.5,401.5C 791.5,387.833 791.5,374.167 791.5,360.5C 763.5,360.5 735.5,360.5 707.5,360.5C 711.401,308.458 690.401,270.291 644.5,246C 593.711,226.357 549.544,236.19 512,275.5C 492.189,300.402 484.022,328.736 487.5,360.5C 459.167,360.5 430.833,360.5 402.5,360.5C 402.667,319.165 402.5,277.832 402,236.5C 382.583,260.529 357.749,269.029 327.5,262C 295.39,251.217 278.39,228.884 276.5,195C 278.349,159.472 296.349,136.472 330.5,126C 355.328,119.962 377.161,125.462 396,142.5C 397.23,145.732 399.23,148.399 402,150.5C 402.5,100.168 402.667,49.8344 402.5,-0.5 Z"/></g>
<g><path style="opacity:0.997" fill="#000000" d="M -0.5,402.5 C 27.8412,402.167 56.1745,402.5 84.5,403.5C 80.8019,446.271 95.8019,480.771 129.5,507C 165.8,530.719 203.8,533.719 243.5,516C 287.684,491.305 307.684,453.638 303.5,403C 332.165,402.5 360.831,402.333 389.5,402.5C 389.333,443.501 389.5,484.501 390,525.5C 410.439,501.675 435.939,493.842 466.5,502C 497.063,513.617 513.063,535.783 514.5,568.5C 512.532,602.971 495.199,625.804 462.5,637C 436.853,644.13 414.353,638.63 395,620.5C 393.333,618.167 391.667,615.833 390,613.5C 389.5,663.832 389.333,714.166 389.5,764.5C 259.5,764.5 129.5,764.5 -0.5,764.5C -0.5,643.833 -0.5,523.167 -0.5,402.5 Z"/></g>
</svg>
