<?xml version="1.0" encoding="UTF-8"?>
<!DOCTYPE svg PUBLIC "-//W3C//DTD SVG 1.1//EN" "http://www.w3.org/Graphics/SVG/1.1/DTD/svg11.dtd">
<svg xmlns="http://www.w3.org/2000/svg" version="1.1" width="3068px" height="1200px" style="shape-rendering:geometricPrecision; text-rendering:geometricPrecision; image-rendering:optimizeQuality; fill-rule:evenodd; clip-rule:evenodd" xmlns:xlink="http://www.w3.org/1999/xlink">
<g><path style="opacity:0.997" fill="#000000" d="M -0.5,207.5 C 119.833,207.5 240.167,207.5 360.5,207.5C 360.5,235.5 360.5,263.5 360.5,291.5C 306.196,288.057 267.363,310.723 244,359.5C 227.133,408.863 237.633,451.363 275.5,487C 300.016,506.964 328.016,515.131 359.5,511.5C 360.5,530.822 360.833,550.155 360.5,569.5C 319.499,569.333 278.499,569.5 237.5,570C 261.673,592.862 268.173,620.029 257,651.5C 244.091,678.558 222.591,692.558 192.5,693.5C 162.08,692.541 140.58,678.207 128,650.5C 118.59,622.211 123.757,597.045 143.5,575C 146.009,573.579 148.343,571.912 150.5,570C 100.168,569.5 49.8344,569.333 -0.5,569.5C -0.5,448.833 -0.5,328.167 -0.5,207.5 Z"/></g>
<g><path style="opacity:0.998" fill="#000000" d="M 402.5,207.5 C 532.5,207.5 662.5,207.5 792.5,207.5C 792.5,327.833 792.5,448.167 792.5,568.5C 764.167,568.5 735.833,568.5 707.5,568.5C 711.401,516.458 690.401,478.291 644.5,454C 593.711,434.357 549.544,444.19 512,483.5C 492.189,508.402 484.022,536.736 487.5,568.5C 459.167,568.5 430.833,568.5 402.5,568.5C 402.667,527.165 402.5,485.832 402,444.5C 382.583,468.529 357.749,477.029 327.5,470C 295.39,459.217 278.39,436.884 276.5,403C 278.349,367.472 296.349,344.472 330.5,334C 355.328,327.962 377.161,333.462 396,350.5C 397.23,353.732 399.23,356.399 402,358.5C 402.5,308.168 402.667,257.834 402.5,207.5 Z"/></g>
<g><path style="opacity:0.987" fill="#000000" d="M 2074.5,279.5 C 2094.83,279.5 2115.17,279.5 2135.5,279.5C 2135.33,361.167 2135.5,442.834 2136,524.5C 2168.31,483.356 2200.81,442.356 2233.5,401.5C 2259.16,400.334 2284.83,400.167 2310.5,401C 2273.26,443.498 2236.26,486.165 2199.5,529C 2239.11,576.282 2279.11,623.282 2319.5,670C 2292.83,670.667 2266.17,670.667 2239.5,670C 2205.36,626.227 2170.86,582.727 2136,539.5C 2135.5,583.165 2135.33,626.832 2135.5,670.5C 2114.83,670.5 2094.17,670.5 2073.5,670.5C 2073.17,540.097 2073.5,409.763 2074.5,279.5 Z"/></g>
<g><path style="opacity:0.991" fill="#000000" d="M 916.5,301.5 C 1008.5,301.5 1100.5,301.5 1192.5,301.5C 1192.5,319.167 1192.5,336.833 1192.5,354.5C 1157.17,354.5 1121.83,354.5 1086.5,354.5C 1086.5,459.833 1086.5,565.167 1086.5,670.5C 1065.17,670.5 1043.83,670.5 1022.5,670.5C 1022.5,565.167 1022.5,459.833 1022.5,354.5C 987.5,354.5 952.5,354.5 917.5,354.5C 917.793,336.799 917.459,319.132 916.5,301.5 Z"/></g>
<g><path style="opacity:0.987" fill="#000000" d="M 1278.5,393.5 C 1304.23,392.345 1328.56,397.511 1351.5,409C 1371.31,422.423 1383.81,440.923 1389,464.5C 1390.43,471.102 1391.43,477.768 1392,484.5C 1392.5,546.499 1392.67,608.499 1392.5,670.5C 1372.5,670.5 1352.5,670.5 1332.5,670.5C 1332.67,657.163 1332.5,643.829 1332,630.5C 1308.6,667.878 1274.93,682.878 1231,675.5C 1188.94,665.941 1167.11,639.608 1165.5,596.5C 1166.82,556.678 1186.16,529.845 1223.5,516C 1231.32,513.059 1239.32,510.726 1247.5,509C 1276.06,504.346 1304.73,500.513 1333.5,497.5C 1335.41,460.75 1318.08,441.417 1281.5,439.5C 1252.4,440.393 1226.4,449.727 1203.5,467.5C 1194.19,456.231 1185.36,444.564 1177,432.5C 1176.49,431.004 1176.99,429.837 1178.5,429C 1208.13,406.681 1241.47,394.848 1278.5,393.5 Z M 1326.5,538.5 C 1328.83,538.5 1331.17,538.5 1333.5,538.5C 1333.92,552.585 1333.09,566.585 1331,580.5C 1320.2,616.488 1296.04,632.988 1258.5,630C 1236.51,625.547 1225.18,612.047 1224.5,589.5C 1224.12,575.759 1229.45,564.926 1240.5,557C 1246.49,553.506 1252.82,550.839 1259.5,549C 1281.92,545.157 1304.25,541.657 1326.5,538.5 Z"/></g>
<g><path style="opacity:0.988" fill="#000000" d="M 1617.5,393.5 C 1665.04,392.493 1694.88,414.826 1707,460.5C 1708.87,468.748 1710.21,477.081 1711,485.5C 1711.5,547.166 1711.67,608.832 1711.5,670.5C 1690.83,670.5 1670.17,670.5 1649.5,670.5C 1649.67,614.499 1649.5,558.499 1649,502.5C 1648.1,489.803 1644.77,477.803 1639,466.5C 1628.85,450.838 1614.35,443.171 1595.5,443.5C 1565.02,445.466 1545.18,461.133 1536,490.5C 1534.48,496.075 1533.48,501.742 1533,507.5C 1532.5,561.832 1532.33,616.166 1532.5,670.5C 1511.83,670.5 1491.17,670.5 1470.5,670.5C 1470.5,580.5 1470.5,490.5 1470.5,400.5C 1491.17,400.5 1511.83,400.5 1532.5,400.5C 1532.33,414.837 1532.5,429.171 1533,443.5C 1552.1,411.578 1580.27,394.911 1617.5,393.5 Z"/></g>
<g><path style="opacity:0.979" fill="#000000" d="M 1878.5,393.5 C 1901.61,392.241 1923.94,395.741 1945.5,404C 1971.85,417.163 1987.68,438.33 1993,467.5C 1994.66,476.091 1995.66,484.757 1996,493.5C 1996.5,552.499 1996.67,611.499 1996.5,670.5C 1976.17,670.5 1955.83,670.5 1935.5,670.5C 1935.67,657.496 1935.5,644.496 1935,631.5C 1914.21,664.814 1884.04,679.98 1844.5,677C 1796.76,670.93 1771.43,643.93 1768.5,596C 1770.04,557.914 1788.37,531.581 1823.5,517C 1829.5,515 1835.5,513 1841.5,511C 1872.93,505.468 1904.43,500.635 1936,496.5C 1937.9,460.239 1920.74,441.239 1884.5,439.5C 1855.62,440.946 1829.62,450.279 1806.5,467.5C 1797.68,455.872 1788.84,444.205 1780,432.5C 1779.49,431.004 1779.99,429.837 1781.5,429C 1810.34,407.553 1842.68,395.72 1878.5,393.5 Z M 1931.5,538.5 C 1933.17,538.5 1934.83,538.5 1936.5,538.5C 1937.03,552.595 1936.2,566.595 1934,580.5C 1923.57,616.147 1899.74,632.647 1862.5,630C 1835.42,623.363 1824.25,606.196 1829,578.5C 1831.48,568.7 1836.98,561.2 1845.5,556C 1851.26,553.078 1857.26,550.745 1863.5,549C 1886.24,545.063 1908.9,541.563 1931.5,538.5 Z"/></g>
<g><path style="opacity:0.982" fill="#000000" d="M 2450.5,393.5 C 2477.66,391.59 2503.32,396.757 2527.5,409C 2547.49,422.691 2559.99,441.524 2565,465.5C 2566.33,472.454 2567.33,479.454 2568,486.5C 2568.5,547.832 2568.67,609.166 2568.5,670.5C 2548.5,670.5 2528.5,670.5 2508.5,670.5C 2508.67,657.163 2508.5,643.829 2508,630.5C 2487.34,664.916 2456.84,680.416 2416.5,677C 2388.76,674.865 2367.26,662.365 2352,639.5C 2342.63,621.952 2339.3,603.286 2342,583.5C 2347.24,552.262 2364.41,530.429 2393.5,518C 2402.91,514.196 2412.58,511.196 2422.5,509C 2451.03,504.706 2479.53,500.539 2508,496.5C 2510.65,459.646 2493.48,440.646 2456.5,439.5C 2427.69,440.832 2401.86,450.165 2379,467.5C 2369.47,455.636 2360.31,443.469 2351.5,431C 2380.7,408.397 2413.7,395.897 2450.5,393.5 Z M 2503.5,538.5 C 2505.17,538.5 2506.83,538.5 2508.5,538.5C 2509.08,553.264 2508.25,567.931 2506,582.5C 2493.41,619.052 2467.91,634.552 2429.5,629C 2406.75,620.861 2397.25,604.695 2401,580.5C 2402.79,570.424 2407.95,562.59 2416.5,557C 2422.49,553.506 2428.82,550.839 2435.5,549C 2458.25,545.16 2480.92,541.66 2503.5,538.5 Z"/></g>
<g><path style="opacity:0.997" fill="#000000" d="M 587.5,485.5 C 623.216,482.765 648.716,497.432 664,529.5C 672.865,556.788 668.032,581.288 649.5,603C 646.268,604.23 643.601,606.23 641.5,609C 691.832,609.5 742.166,609.667 792.5,609.5C 792.5,730.167 792.5,850.833 792.5,971.5C 671.833,971.5 551.167,971.5 430.5,971.5C 430.5,943.5 430.5,915.5 430.5,887.5C 474.358,890.981 509.525,875.314 536,840.5C 562.573,797.065 561.907,754.065 534,711.5C 507.912,678.381 473.746,663.714 431.5,667.5C 430.5,648.178 430.167,628.845 430.5,609.5C 471.835,609.667 513.168,609.5 554.5,609C 532.492,589.975 524.659,566.142 531,537.5C 539.927,509.304 558.761,491.971 587.5,485.5 Z"/></g>
<g><path style="opacity:0.997" fill="#000000" d="M -0.5,610.5 C 27.8412,610.167 56.1745,610.5 84.5,611.5C 80.8019,654.271 95.8019,688.771 129.5,715C 165.8,738.719 203.8,741.719 243.5,724C 287.684,699.305 307.684,661.638 303.5,611C 332.165,610.5 360.831,610.333 389.5,610.5C 389.333,651.501 389.5,692.501 390,733.5C 410.439,709.675 435.939,701.842 466.5,710C 497.063,721.617 513.063,743.783 514.5,776.5C 512.532,810.971 495.199,833.804 462.5,845C 436.853,852.13 414.353,846.63 395,828.5C 393.333,826.167 391.667,823.833 390,821.5C 389.5,871.832 389.333,922.166 389.5,972.5C 259.5,972.5 129.5,972.5 -0.5,972.5C -0.5,851.833 -0.5,731.167 -0.5,610.5 Z"/></g>
<g><path style="opacity:0.95" fill="#000000" d="M 2387.5,724.5 C 2399.5,724.5 2411.5,724.5 2423.5,724.5C 2423.5,799.5 2423.5,874.5 2423.5,949.5C 2411.17,949.5 2398.83,949.5 2386.5,949.5C 2386.17,874.429 2386.5,799.429 2387.5,724.5 Z"/></g>
<g><path style="opacity:0.965" fill="#000000" d="M 2575.5,724.5 C 2587.75,724.178 2599.91,724.512 2612,725.5C 2612.5,800.166 2612.67,874.833 2612.5,949.5C 2600.17,949.5 2587.83,949.5 2575.5,949.5C 2575.67,942.159 2575.5,934.826 2575,927.5C 2560.18,948.146 2540.02,956.646 2514.5,953C 2485.29,946.793 2467.79,928.96 2462,899.5C 2456.83,873.003 2460.16,847.669 2472,823.5C 2489.87,796.083 2515.04,785.583 2547.5,792C 2559.48,795.073 2568.65,801.906 2575,812.5C 2575.5,783.169 2575.67,753.835 2575.5,724.5 Z M 2529.5,819.5 C 2555.39,816.913 2570.89,828.246 2576,853.5C 2576.67,863.5 2576.67,873.5 2576,883.5C 2572.02,914.17 2554.85,927.336 2524.5,923C 2509.43,916.918 2500.6,905.751 2498,889.5C 2494.55,870.04 2497.55,851.707 2507,834.5C 2513.05,827.078 2520.55,822.078 2529.5,819.5 Z"/></g>
<g><path style="opacity:0.97" fill="#000000" d="M 956.5,733.5 C 981.61,731.622 1005.28,736.455 1027.5,748C 1022.63,757.579 1017.63,767.079 1012.5,776.5C 994.314,766.496 974.981,762.996 954.5,766C 934.04,771.754 927.54,784.587 935,804.5C 941.013,811.436 948.513,816.27 957.5,819C 969.984,822.939 982.318,827.272 994.5,832C 1026.53,846.887 1038.69,871.72 1031,906.5C 1023.69,929.141 1008.52,943.641 985.5,950C 950.353,957.753 917.353,952.42 886.5,934C 892,924.5 897.5,915 903,905.5C 925.862,921.06 950.695,925.56 977.5,919C 993.332,912.169 999.165,900.335 995,883.5C 990.727,873.231 983.227,866.398 972.5,863C 953.571,857.866 935.571,850.533 918.5,841C 898.627,826.396 891.127,806.896 896,782.5C 901.375,761.455 914.208,746.955 934.5,739C 941.823,736.575 949.157,734.742 956.5,733.5 Z"/></g>
<g><path style="opacity:0.961" fill="#000000" d="M 1977.5,736.5 C 1989.83,736.5 2002.17,736.5 2014.5,736.5C 2014.5,766.167 2014.5,795.833 2014.5,825.5C 2047.5,825.5 2080.5,825.5 2113.5,825.5C 2112.41,796.178 2112.24,766.845 2113,737.5C 2125.09,736.346 2137.26,736.179 2149.5,737C 2150.66,807.763 2150.83,878.596 2150,949.5C 2137.91,950.488 2125.75,950.822 2113.5,950.5C 2112.59,919.845 2112.26,889.178 2112.5,858.5C 2079.83,858.5 2047.17,858.5 2014.5,858.5C 2014.5,889.167 2014.5,919.833 2014.5,950.5C 2002.25,950.822 1990.09,950.488 1978,949.5C 1977.5,878.501 1977.33,807.501 1977.5,736.5 Z"/></g>
<g><path style="opacity:0.968" fill="#000000" d="M 1101.5,748.5 C 1102.83,748.5 1104.17,748.5 1105.5,748.5C 1105.5,763.5 1105.5,778.5 1105.5,793.5C 1117.83,793.5 1130.17,793.5 1142.5,793.5C 1142.5,803.167 1142.5,812.833 1142.5,822.5C 1130.17,822.5 1117.83,822.5 1105.5,822.5C 1105.33,852.835 1105.5,883.168 1106,913.5C 1107.99,922.25 1113.49,926.25 1122.5,925.5C 1127.15,925.211 1131.65,924.211 1136,922.5C 1136.5,922.833 1137,923.167 1137.5,923.5C 1139.93,930.964 1142.27,938.464 1144.5,946C 1143.25,948.303 1141.25,949.636 1138.5,950C 1121.06,955.459 1104.06,954.459 1087.5,947C 1077.61,940.439 1071.78,931.272 1070,919.5C 1069.5,887.168 1069.33,854.835 1069.5,822.5C 1060.83,822.5 1052.17,822.5 1043.5,822.5C 1043.82,813.249 1043.48,804.083 1042.5,795C 1051.33,793.53 1060.33,793.03 1069.5,793.5C 1069.33,781.829 1069.5,770.162 1070,758.5C 1080.62,755.238 1091.12,751.904 1101.5,748.5 Z"/></g>
<g><path style="opacity:0.971" fill="#000000" d="M 1350.5,790.5 C 1377.72,786.628 1401.55,793.628 1422,811.5C 1436.27,828.461 1443.1,848.127 1442.5,870.5C 1443.28,899.101 1432.61,922.268 1410.5,940C 1385.2,954.448 1358.54,957.448 1330.5,949C 1303.61,938.098 1287.78,918.265 1283,889.5C 1279.25,865.229 1283.59,842.563 1296,821.5C 1309.84,803.499 1328,793.166 1350.5,790.5 Z M 1352.5,819.5 C 1380.22,815.254 1397.38,826.588 1404,853.5C 1406.68,869.417 1405.68,885.084 1401,900.5C 1391.37,920.295 1375.54,928.128 1353.5,924C 1334.36,919.195 1323.2,907.028 1320,887.5C 1316.34,868.104 1319.67,850.104 1330,833.5C 1336.08,826.385 1343.58,821.719 1352.5,819.5 Z"/></g>
<g><path style="opacity:0.964" fill="#000000" d="M 1555.5,790.5 C 1595.33,787.829 1616.17,806.496 1618,846.5C 1618.5,880.832 1618.67,915.165 1618.5,949.5C 1606.5,949.5 1594.5,949.5 1582.5,949.5C 1582.67,919.831 1582.5,890.165 1582,860.5C 1583.01,846.172 1578.51,834.006 1568.5,824C 1543.77,814.114 1526.6,821.614 1517,846.5C 1515.83,880.809 1515,915.142 1514.5,949.5C 1502.5,949.5 1490.5,949.5 1478.5,949.5C 1478.33,897.832 1478.5,846.166 1479,794.5C 1490.76,793.346 1502.59,793.179 1514.5,794C 1515.32,801.754 1515.82,809.588 1516,817.5C 1525.24,802.759 1538.41,793.759 1555.5,790.5 Z"/></g>
<g><path style="opacity:0.971" fill="#000000" d="M 1711.5,790.5 C 1734.49,786.987 1752.99,794.32 1767,812.5C 1767.5,806.175 1767.67,799.842 1767.5,793.5C 1779.5,793.5 1791.5,793.5 1803.5,793.5C 1803.67,845.168 1803.5,896.834 1803,948.5C 1798.3,989.198 1775.8,1013.03 1735.5,1020C 1709.13,1023.49 1683.79,1019.83 1659.5,1009C 1658.48,1007.95 1658.32,1006.78 1659,1005.5C 1662.34,997.489 1666.17,989.822 1670.5,982.5C 1690.6,991.919 1711.6,994.752 1733.5,991C 1753.74,985.036 1764.9,971.536 1767,950.5C 1767.67,942.5 1767.67,934.5 1767,926.5C 1752.51,947.899 1732.34,956.732 1706.5,953C 1683.3,949.145 1667.13,936.311 1658,914.5C 1648.89,886.601 1649.56,858.934 1660,831.5C 1670.03,808.613 1687.2,794.946 1711.5,790.5 Z M 1720.5,819.5 C 1745.02,816.551 1760.52,826.884 1767,850.5C 1767.67,863.167 1767.67,875.833 1767,888.5C 1761.91,914.787 1746.08,926.62 1719.5,924C 1707.73,921.707 1699.23,915.207 1694,904.5C 1687.03,884.648 1686.7,864.648 1693,844.5C 1698.27,831.72 1707.44,823.387 1720.5,819.5 Z"/></g>
<g><path style="opacity:0.97" fill="#000000" d="M 2258.5,790.5 C 2285.72,786.628 2309.55,793.628 2330,811.5C 2344.27,828.473 2351.1,848.14 2350.5,870.5C 2351.24,906.554 2335.57,932.387 2303.5,948C 2276.78,956.693 2250.78,955.027 2225.5,943C 2201.29,926.417 2189.29,903.25 2189.5,873.5C 2189.81,826.558 2212.81,798.891 2258.5,790.5 Z M 2261.5,819.5 C 2288.82,815.696 2305.65,827.029 2312,853.5C 2314.68,869.422 2313.68,885.089 2309,900.5C 2299.37,920.295 2283.54,928.128 2261.5,924C 2241.94,919.1 2230.77,906.6 2228,886.5C 2225.42,871.023 2227.09,856.023 2233,841.5C 2239.35,829.927 2248.85,822.594 2261.5,819.5 Z"/></g>
<g><path style="opacity:0.973" fill="#000000" d="M 1242.5,791.5 C 1248.84,791.334 1255.18,791.5 1261.5,792C 1263.38,792.216 1265.05,792.883 1266.5,794C 1264.73,802.743 1263.23,811.576 1262,820.5C 1261.78,821.938 1261.28,823.271 1260.5,824.5C 1239.25,819.375 1224.08,826.709 1215,846.5C 1212.88,851.982 1211.55,857.649 1211,863.5C 1210.67,892.167 1210.33,920.833 1210,949.5C 1198.25,950.488 1186.41,950.821 1174.5,950.5C 1174.5,898.167 1174.5,845.833 1174.5,793.5C 1186.5,793.5 1198.5,793.5 1210.5,793.5C 1210.33,802.839 1210.5,812.173 1211,821.5C 1216.55,806.117 1227.05,796.117 1242.5,791.5 Z"/></g>
<g><path style="opacity:0.946" fill="#000000" d="M 1848.5,852.5 C 1875.83,852.5 1903.17,852.5 1930.5,852.5C 1930.5,861.5 1930.5,870.5 1930.5,879.5C 1903.17,879.5 1875.83,879.5 1848.5,879.5C 1848.5,870.5 1848.5,861.5 1848.5,852.5 Z"/></g>
</svg>
